<svg xmlns="http://www.w3.org/2000/svg" viewBox="0 0 16 16" width="16" height="16">
  <defs>
    <linearGradient id="bgGrad" x1="0%" y1="0%" x2="100%" y2="100%">
      <stop offset="0%" style="stop-color:#10b981;stop-opacity:1" />
      <stop offset="100%" style="stop-color:#059669;stop-opacity:1" />
    </linearGradient>
    <linearGradient id="accentGrad" x1="0%" y1="0%" x2="100%" y2="100%">
      <stop offset="0%" style="stop-color:#fbbf24;stop-opacity:1" />
      <stop offset="100%" style="stop-color:#f59e0b;stop-opacity:1" />
    </linearGradient>
  </defs>
  
  <!-- Background -->
  <circle cx="8" cy="8" r="7.5" fill="url(#bgGrad)" stroke="#ffffff" stroke-width="1"/>
  
  <!-- House/School -->
  <g transform="translate(2, 6)">
    <rect x="1" y="3" width="4" height="3" fill="#8b5cf6" rx="0.2"/>
    <polygon points="0.5,3 2.5,1 4.5,3" fill="#6d28d9"/>
    <rect x="2" y="4.5" width="0.8" height="1.5" fill="#ffffff" rx="0.1"/>
    <rect x="3.5" y="4" width="0.8" height="0.8" fill="#ffffff" rx="0.1"/>
  </g>
  
  <!-- STEM Icon -->
  <g transform="translate(9, 4)">
    <circle cx="1.5" cy="1.5" r="0.5" fill="none" stroke="url(#accentGrad)" stroke-width="0.4"/>
    <circle cx="1.5" cy="1.5" r="1.2" fill="none" stroke="url(#accentGrad)" stroke-width="0.3" opacity="0.7"/>
    <circle cx="1.5" cy="1.5" r="0.2" fill="url(#accentGrad)"/>
  </g>
  
  <!-- Leaf -->
  <g transform="translate(10, 10)">
    <path d="M1,2 Q2,0.5 3,2 Q2,3 1,2 Z" fill="#34d399"/>
  </g>
  
  <!-- Game Element -->
  <g transform="translate(4, 11)">
    <rect x="0" y="0" width="2" height="1.2" fill="#8b5cf6" rx="0.5"/>
    <circle cx="0.4" cy="0.6" r="0.15" fill="#ffffff"/>
    <circle cx="1.6" cy="0.6" r="0.15" fill="#ffffff"/>
  </g>
</svg>